HIERARCHY
ROOT Hips
{
	OFFSET 0.000000 0.000000 0.000000 
	CHANNELS 6 Xposition Yposition Zposition Yrotation Zrotation Xrotation 
	JOINT Lumbar
	{
		OFFSET 0.000000 0.000000 0.000000 
		CHANNELS 3 Zrotation Xrotation Yrotation
		JOINT Neck
		{
			OFFSET 0.000000 0.445665 0.000000 
			CHANNELS 3 Zrotation Xrotation Yrotation
			End Site
			{
				OFFSET 0.000000 0.227535 0.000000 
			}
		}
		JOINT RightShoulder
		{
			OFFSET 0.019635 0.377685 0.194865 
			CHANNELS 3 Zrotation Xrotation Yrotation
			JOINT RightElbow
			{
				OFFSET 0.000000 -0.243375 0.000000 
				CHANNELS 2 Zrotation Yrotation
				JOINT RightWrist
				{
					OFFSET 0.000000 -0.264825 0.000000 
					CHANNELS 2 Zrotation Xrotation
					End Site
					{
						OFFSET 0.006600 -0.176220 0.000990 
					}
				}
			}
		}
		JOINT LeftShoulder
		{
			OFFSET 0.019635 0.377685 -0.194865 
			CHANNELS 3 Zrotation Xrotation Yrotation
			JOINT LeftElbow
			{
				OFFSET 0.000000 -0.243375 0.000000 
				CHANNELS 2 Zrotation Yrotation
				JOINT LeftWrist
				{
					OFFSET 0.000000 -0.264825 0.000000 
					CHANNELS 2 Zrotation Xrotation
					End Site
					{
						OFFSET 0.006600 -0.176220 -0.000990 
					}
				}
			}
		}
	}
	JOINT RightHip
	{
		OFFSET 0.052140 -0.069960 0.075570 
		CHANNELS 3 Zrotation Xrotation Yrotation
		JOINT RightKnee
		{
			OFFSET 0.000000 -0.402270 0.000000 
			CHANNELS 1 Zrotation
			JOINT RightAnkle
			{
				OFFSET 0.000000 -0.404085 0.000000 
				CHANNELS 3 Zrotation Xrotation Yrotation
				End Site
				{
					OFFSET 0.204105 -0.089430 0.008415 
				}
			}
		}
	}
	JOINT LeftHip
	{
		OFFSET 0.052140 -0.069960 -0.075570 
		CHANNELS 3 Zrotation Xrotation Yrotation
		JOINT LeftKnee
		{
			OFFSET 0.000000 -0.402270 0.000000 
			CHANNELS 1 Zrotation
			JOINT LeftAnkle
			{
				OFFSET 0.000000 -0.404085 0.000000 
				CHANNELS 3 Zrotation Xrotation Yrotation
				End Site
				{
					OFFSET 0.204105 -0.089430 -0.008415 
				}
			}
		}
	}
}
MOTION
Frames: 13
Frame Time: 0.02
0.01098 0.00738 0.00558 144.3294 -41.46108 -9.12242 40.23262 -0.22465 -10.32809 2.19066 -6.18556 -0.87551 -26.38517 -4.5244 -8.38878 31.02416 81.44159 -1.86153 -0.62605 -14.66943 35.09062 -22.01175 46.12381 -111.84172 -2.40719 9.05535 35.64155 -1.04478 -5.35263 -20.02372 -7.3201 -4.10056 -4.26241 41.73957 2.20848 -6.52512 -23.46354 -7.0534 2.29595 3.41869
0.0095 0.00618 0.00073 143.74869 -41.22926 -9.1809 40.42245 -0.20414 -9.95363 1.6338 -6.03617 -0.87804 -25.92646 -4.77547 -8.36146 30.76385 81.83367 -1.54261 -0.49238 -14.47761 34.85696 -20.39745 44.59671 -105.08782 -3.87219 7.49246 35.30715 -0.99605 -5.81149 -20.08695 -7.26684 -4.04687 -4.2332 41.33482 2.51194 -5.59507 -23.65841 -7.0325 2.2748 3.4019
0.00803 0.00499 -0.00411 143.16938 -40.99708 -9.23977 40.6105 -0.18309 -9.58005 1.07854 -5.8873 -0.88063 -25.46772 -5.0255 -8.33629 30.50366 82.21962 -1.2271 -0.35796 -14.28792 34.62458 -18.78775 43.07606 -98.37564 -5.32459 5.93411 34.97233 -0.94696 -6.27091 -20.14982 -7.21359 -3.99313 -4.20398 40.93225 2.81489 -4.6691 -23.85677 -7.01178 2.25391 3.38527
0.00655 0.0038 -0.00895 142.59036 -40.76574 -9.29819 40.79954 -0.16255 -9.20672 0.52333 -5.73839 -0.88317 -25.01016 -5.27572 -8.30951 30.24399 82.60941 -0.90966 -0.22443 -14.09699 34.39175 -17.17838 41.55396 -91.64701 -6.78338 4.37594 34.63866 -0.8983 -6.72876 -20.21282 -7.16046 -3.93956 -4.17484 40.52872 3.11747 -3.74222 -24.05158 -6.99094 2.23287 3.36856
0.00507 0.0026 -0.01379 142.01015 -40.53534 -9.35597 40.99084 -0.14276 -8.83255 -0.0333 -5.58891 -0.88561 -24.55326 -5.52718 -8.27948 29.98459 83.00796 -0.58759 -0.09231 -13.9032 34.15739 -15.56449 40.02472 -84.86589 -8.25889 2.81348 34.30614 -0.8502 -7.18506 -20.27626 -7.1074 -3.88612 -4.14576 40.12314 3.42041 -2.81053 -24.24167 -6.96993 2.21147 3.35164
0.00361 0.00141 -0.01863 141.43283 -40.29954 -9.41709 41.17209 -0.11909 -8.46017 -0.58559 -5.44134 -0.88853 -24.09072 -5.77425 -8.26431 29.72286 83.36791 -0.28571 0.04678 -13.72207 33.92915 -13.96368 38.52216 -78.29712 -9.66332 1.26395 33.96661 -0.79906 -7.65087 -20.33794 -7.05373 -3.83179 -4.11624 39.72717 3.72336 -1.89645 -24.45755 -6.94985 2.19164 3.3356
0.00211 0.00022 -0.02348 140.85016 -40.0744 -9.47153 41.3732 -0.10323 -8.0848 -1.14629 -5.29014 -0.89049 -23.63982 -6.02956 -8.2202 29.46574 83.80293 0.05562 0.17231 -13.51606 33.68901 -12.33854 36.96778 -71.31691 -11.20609 -0.31021 33.64108 -0.75407 -8.09767 -20.40305 -7.00131 -3.77925 -4.08761 39.31108 4.02591 -0.94878 -24.62053 -6.92781 2.16875 3.31784
0.00064 -0.00098 -0.02832 140.27272 -39.84026 -9.53197 41.55632 -0.0802 -7.71185 -1.69871 -5.1422 -0.89333 -23.17861 -6.27787 -8.20103 29.20503 84.17275 0.36211 0.30921 -13.33227 33.45952 -10.7354 35.46081 -64.70043 -12.62701 -1.86107 33.30354 -0.70344 -8.56085 -20.46509 -6.94782 -3.72518 -4.05823 38.91579 4.32891 -0.03057 -24.8337 -6.90778 2.14854 3.30161
-0.00078 -0.00219 -0.03313 139.70017 -39.59153 -9.60049 41.71604 -0.04817 -7.34299 -2.24335 -4.99853 -0.89725 -22.70264 -6.51532 -8.21963 28.93708 84.44613 0.61961 0.4648 -13.17871 33.24433 -9.16014 34.013 -58.59179 -13.87541 -3.38646 32.94731 -0.64568 -9.04918 -20.52298 -6.89265 -3.66869 -4.02762 38.537 4.63234 0.84579 -25.10348 -6.88939 2.13219 3.28749
-0.00243 -0.00331 -0.03808 139.09497 -39.41592 -9.62478 42.00612 -0.06723 -6.95397 -2.8398 -4.83113 -0.895 -22.30507 -6.80833 -8.04285 28.70221 85.22396 1.13966 0.52728 -12.86046 32.95074 -7.4274 32.2284 -49.75149 -16.04545 -5.06751 32.68653 -0.6282 -9.40824 -20.60355 -6.84604 -3.62445 -4.00314 38.03643 4.93295 1.94539 -25.03335 -6.85911 2.09539 3.26197
-0.00362 -0.00462 -0.04273 138.5616 -39.0931 -9.74088 42.02402 0.02102 -6.6054 -3.32241 -4.71326 -0.90574 -21.74644 -6.98856 -8.26405 28.40309 84.97026 1.1184 0.77686 -12.88362 32.82004 -6.0252 31.15198 -46.55114 -16.31716 -6.41418 32.23228 -0.52626 -10.02992 -20.63706 -6.7821 -3.55549 -3.96633 37.80988 5.23966 2.58528 -25.68895 -6.85549 2.1006 3.26
-0.00348 -0.00646 -0.04662 138.20295 -38.30365 -10.12316 41.26412 0.41035 -6.38594 -3.52742 -4.73726 -0.95252 -20.7058 -6.8197 -9.70625 27.88104 81.58138 -0.50928 1.62382 -13.90424 33.1624 -5.5547 32.05748 -60.01624 -10.94051 -6.88504 31.17559 -0.18695 -11.46548 -20.53316 -6.66391 -3.40845 -3.89034 38.19971 5.56079 1.8577 -28.27962 -6.91241 2.23183 3.32743
-0.0029 -0.00848 -0.0502 137.92059 -37.37788 -10.59449 40.23692 0.90581 -6.20388 -3.6121 -4.80991 -1.01222 -19.51133 -6.54486 -11.52445 27.30377 77.209 -2.65942 2.64438 -15.25722 33.66395 -5.4131 33.66661 -78.93639 -3.73477 -7.01334 29.93733 0.23541 -13.14898 -20.38328 -6.52952 -3.23836 -3.80288 38.88767 5.88739 0.68762 -31.6043 -6.99807 2.40335 3.41763
